HIERARCHY
ROOT ROOT
{
	OFFSET 0.000000 56.020000 -5.659234
	CHANNELS 6 Xposition Yposition Zposition Xrotation Yrotation Zrotation 
	JOINT C_spine0001_bind_JNT
	{
		OFFSET 0.000000 1.618999 0.000000
		CHANNELS 3 Xrotation Yrotation Zrotation
		JOINT C_spine0002_bind_JNT
		{
			OFFSET 0.000000 4.942001 0.000001
			CHANNELS 3 Xrotation Yrotation Zrotation
			JOINT C_spine0003_bind_JNT
			{
				OFFSET 0.000000 4.942001 -0.000000
				CHANNELS 3 Xrotation Yrotation Zrotation
				JOINT C_neck0001_bind_JNT
				{
					OFFSET 0.000000 17.026009 -0.000000
					CHANNELS 3 Xrotation Yrotation Zrotation
					JOINT C_neck0002_bind_JNT
					{
						OFFSET 0.000000 3.249985 0.000000
						CHANNELS 3 Xrotation Yrotation Zrotation
						JOINT C_head_bind_JNT
						{
							OFFSET 0.000000 5.278008 0.000000
							CHANNELS 3 Xrotation Yrotation Zrotation
							End Site
							{
								OFFSET 0.000000 0.000000 0.000000
							}
						}
					}
				}
				JOINT L_clavicle_bind_JNT
				{
					OFFSET 4.590000 12.067001 0.834000
					CHANNELS 3 Xrotation Yrotation Zrotation
					JOINT L_armUpper0001_bind_JNT
					{
						OFFSET 7.812635 0.512001 -3.452945
						CHANNELS 3 Xrotation Yrotation Zrotation
						JOINT L_armLower0001_bind_JNT
						{
							OFFSET 15.265892 -6.552116 -0.058157
							CHANNELS 3 Xrotation Yrotation Zrotation
							JOINT L_hand0001_bind_JNT
							{
								OFFSET 14.747667 -6.369995 5.049225
								CHANNELS 3 Xrotation Yrotation Zrotation
								End Site
								{
									OFFSET 0.000000 0.000000 0.000000
								}
							}
						}
					}
				}
				JOINT R_clavicle_bind_JNT
				{
					OFFSET -4.590000 12.067001 0.834000
					CHANNELS 3 Xrotation Yrotation Zrotation
					JOINT R_armUpper0001_bind_JNT
					{
						OFFSET -7.812635 0.512001 -3.452945
						CHANNELS 3 Xrotation Yrotation Zrotation
						JOINT R_armLower0001_bind_JNT
						{
							OFFSET -15.265890 -6.552124 -0.058160
							CHANNELS 3 Xrotation Yrotation Zrotation
							JOINT R_hand0001_bind_JNT
							{
								OFFSET -14.746784 -6.369629 5.048937
								CHANNELS 3 Xrotation Yrotation Zrotation
								End Site
								{
									OFFSET 0.000000 0.000000 0.000000
								}
							}
						}
					}
				}
			}
		}
	}
	JOINT C_pelvis0001_bind_JNT
	{
		OFFSET -0.000000 0.000000 0.000000
		CHANNELS 3 Xrotation Yrotation Zrotation
		JOINT L_legUpper0001_bind_JNT
		{
			OFFSET 6.599999 -6.027000 0.539000
			CHANNELS 3 Xrotation Yrotation Zrotation
			JOINT L_legLower0001_bind_JNT
			{
				OFFSET -0.140713 -19.187443 0.040261
				CHANNELS 3 Xrotation Yrotation Zrotation
				JOINT L_foot0001_bind_JNT
				{
					OFFSET -0.132215 -18.028637 -1.138370
					CHANNELS 3 Xrotation Yrotation Zrotation
					JOINT L_foot0002_bind_JNT
					{
						OFFSET 0.007014 -4.693133 9.886524
						CHANNELS 3 Xrotation Yrotation Zrotation
						End Site
						{
							OFFSET 0.000000 0.000000 0.000000
						}
					}
				}
			}
		}
		JOINT R_legUpper0001_bind_JNT
		{
			OFFSET -6.599999 -6.027000 0.539000
			CHANNELS 3 Xrotation Yrotation Zrotation
			JOINT R_legLower0001_bind_JNT
			{
				OFFSET 0.140710 -19.187164 0.040550
				CHANNELS 3 Xrotation Yrotation Zrotation
				JOINT R_foot0001_bind_JNT
				{
					OFFSET 0.132215 -18.028633 -1.138362
					CHANNELS 3 Xrotation Yrotation Zrotation
					JOINT R_foot0002_bind_JNT
					{
						OFFSET -0.007014 -4.693128 9.886505
						CHANNELS 3 Xrotation Yrotation Zrotation
						End Site
						{
							OFFSET 0.000000 0.000000 0.000000
						}
					}
				}
			}
		}
	}
}
MOTION
Frames: 6
Frame Time: 0.033333
3.489409 47.634804 105.538589 0.037212 -23.450703 -0.038867 -1.442363 23.687771 -0.367764 -3.693462 5.018290 -0.709570 6.955820 4.126429 -2.512615 23.128284 -3.248614 5.521592 0.258879 -0.909976 0.032322 5.726309 -5.808903 10.912839 5.259600 -1.207779 9.877668 -13.710385 8.163601 -38.072826 7.400147 0.097558 -10.671257 -10.336817 -7.921756 -26.245922 0.317812 -2.275365 -7.735916 -54.244160 33.607178 59.530758 -2.036641 20.397591 23.293011 -7.794459 9.199611 30.788815 -1.878677 13.897491 0.763355 -14.411573 -0.796040 -7.043528 31.792316 -5.094116 1.330876 -10.595245 1.983972 3.940831 -3.274514 -0.455213 -0.084770 9.956535 1.762259 2.927545 30.865564 -4.456680 6.937719 19.689787 11.349024 16.575453 -29.297350 -1.090160 -16.410303 
3.129591 47.268280 107.347191 0.006922 -22.513010 -0.066278 -2.695365 23.432180 -2.604249 -3.823213 4.549498 -1.158699 6.836838 4.280728 -2.996553 23.282326 -3.196316 5.266761 0.586039 -0.990354 -0.080896 6.500222 -4.756438 10.502683 5.286288 -0.488626 9.105528 -15.998446 4.934939 -38.848949 6.199087 -1.444599 -9.691088 -10.547040 -5.514662 -25.923149 0.816125 -2.528104 -8.613811 -49.912239 30.738277 54.649624 -1.309402 18.849413 24.981701 -7.591521 8.069346 31.359360 -2.083569 13.456058 0.280809 -13.423190 -0.842451 -6.799768 34.153839 -4.897529 1.302657 -13.374760 2.968421 4.286020 -3.733115 -0.819984 0.115426 8.804417 1.867417 1.337604 37.685616 -4.290552 8.931867 21.990559 13.868805 19.616350 -19.991034 -4.310653 -11.033314 
3.079166 47.316116 109.093208 0.015707 -21.009542 -0.061904 -2.980016 22.459894 -4.851732 -3.919280 4.021719 -1.690520 6.541898 3.852867 -3.354188 22.833923 -2.872207 4.819324 0.933903 -0.576143 -0.287633 7.479335 -4.518842 10.206050 4.229954 0.161693 8.148499 -18.368490 0.440168 -40.492424 6.930125 -2.832731 -8.280818 -11.932697 -3.844149 -27.014221 0.444025 -2.567665 -9.682440 -43.603542 26.728434 50.905231 1.785782 15.120802 24.512659 -6.992151 7.922102 32.300167 -2.739718 13.447103 -0.621153 -11.293262 -1.176548 -6.059578 35.947964 -4.422693 1.234981 -15.255672 3.071696 4.499044 -5.345075 -0.354921 0.153512 6.041133 1.344355 0.326087 44.473640 -4.289234 10.540222 23.400318 13.488790 19.869078 -15.182577 -4.191294 -5.715256 
3.033083 47.491989 111.048866 0.026001 -19.562035 -0.040829 -3.675508 22.145100 -7.265809 -4.048635 3.370560 -1.592705 6.915017 3.664635 -3.739196 22.894264 -3.180257 4.518413 0.382115 -0.589087 -0.546479 6.679502 -3.524385 10.027102 3.334257 0.428436 7.406617 -20.824862 -3.954871 -43.384457 8.514793 -4.289868 -7.196022 -14.233535 -3.337482 -27.872297 0.888759 -2.310898 -10.225810 -38.201782 21.495821 48.456844 5.977866 9.479748 22.564045 -5.719558 7.162943 33.831001 -2.593689 13.914891 -1.856017 -10.315951 -1.486428 -4.564555 37.596996 -4.950898 1.893195 -16.346752 3.730620 3.320270 -7.427657 -0.045576 1.462289 3.612237 1.012617 -0.873315 49.200924 -3.828762 10.637055 22.928011 10.161555 19.115234 -14.272921 -2.468523 -2.303924 
2.935268 47.697418 112.758751 0.045048 -18.023899 -0.066548 -3.466823 21.579441 -8.959801 -4.273515 2.457800 -1.890054 6.380877 2.898215 -4.518283 23.142965 -2.507434 3.960785 0.671531 -0.548815 -0.660841 5.946736 -3.598766 9.565454 3.383633 1.201727 6.336317 -24.222239 -8.901817 -45.165787 9.440535 -5.390999 -7.144814 -14.776233 -4.343060 -29.048103 1.380058 -1.447985 -10.763174 -31.728512 16.089756 47.364086 10.713583 2.202737 20.582066 -4.882978 7.010521 32.930592 -3.298363 14.988317 -2.546485 -8.218829 -2.750180 -3.659390 38.530224 -4.788246 1.845588 -16.096384 3.493032 2.474534 -9.934088 0.013015 2.586980 1.457224 1.046891 -1.001255 52.418369 -2.516911 9.591807 20.870403 4.802863 16.904099 -14.316443 -1.617387 -1.549357 
2.715081 47.919270 114.406128 0.024083 -17.158825 -0.047492 -3.246375 22.176422 -10.492837 -4.062216 1.325172 -1.983240 6.392407 2.627228 -4.849210 23.045452 -2.221952 3.425496 0.125702 -0.973909 -0.167837 5.677014 -3.266028 8.583046 2.838966 0.407154 6.146976 -27.616577 -13.013495 -47.973969 10.023844 -5.681324 -8.431434 -15.537622 -5.820174 -29.884003 2.136441 -0.962652 -10.992263 -26.922716 9.790378 46.122391 15.442282 -4.368900 18.738537 -5.578633 5.599572 33.041576 -3.672426 17.093386 -3.403820 -5.381942 -3.892259 -2.244883 37.509190 -6.008647 2.390501 -15.162377 3.994065 1.188912 -11.977603 -0.686714 3.513002 -1.591356 1.316049 -1.066499 55.831402 -1.198946 8.206447 17.401518 -0.223170 14.223178 -13.951121 -0.332973 0.062005 
